<?xml version="1.0" encoding="UTF-8"?>
<svg width="774px" height="48px" viewBox="0 0 774 48" version="1.1" xmlns="http://www.w3.org/2000/svg" xmlns:xlink="http://www.w3.org/1999/xlink">
    <!-- Generator: Sketch 48.2 (47327) - http://www.bohemiancoding.com/sketch -->
    <title>adobe</title>
    <desc>Created with Sketch.</desc>
    <defs></defs>
    <g id="2.0_About" stroke="none" stroke-width="1" fill="none" fill-rule="evenodd" transform="translate(-332.000000, -790.000000)">
        <g id="adobe" transform="translate(332.000000, 790.000000)">
            <g id="ai" transform="translate(196.000000, 0.800000)">
                <g id="ai_cc_app_RGB">
                    <rect id="Rectangle-path" fill="#A8A8A8" x="0" y="0" width="46.4" height="44.8"></rect>
                    <path d="M0,0 L0,46.4 L48,46.4 L48,0 L0,0 Z M1.99999167,1.98290598 L46.0000083,1.98290598 L46.0000083,44.417094 L1.99999167,44.417094 L1.99999167,1.98290598 Z" id="Shape" fill="#D6D6D6"></path>
                    <path d="M16.922123,26.6580198 L15.3711921,32.5983053 C15.338881,32.7615631 15.2742589,32.8 15.0803926,32.8 L12.2043166,32.8 C12.0108419,32.8 11.9787266,32.7346176 12.0108419,32.5057793 L17.5683442,12.8023068 C17.6652773,12.4427037 17.7298995,12.1332272 17.7622105,11.1522935 C17.7622105,11.0215288 17.8268326,10.9561464 17.9237658,10.9561464 L22.0272704,10.9561464 C22.1565147,10.9561464 22.2211368,10.9888376 22.2534479,11.1522935 L28.4894824,32.5382724 C28.5217935,32.7015302 28.4894824,32.7998019 28.3279271,32.7998019 L25.0968211,32.7998019 C24.9354617,32.7998019 24.8385285,32.7615631 24.8062174,32.6306002 L23.1906644,26.6578216 L16.922123,26.6578216 L16.922123,26.6580198 Z M22.3826921,23.4384334 C21.8334041,21.2479258 20.5409617,16.4472749 20.0562958,14.1263988 L20.0239847,14.1263988 C19.6037451,16.447473 18.569987,20.365462 17.7622105,23.4384334 L22.3826921,23.4384334 Z M31.1934286,12.4268535 C31.1934286,11.1518973 32.0658272,10.4 33.1967143,10.4 C34.3922235,10.4 35.2,11.2172796 35.2,12.4268535 C35.2,13.7345009 34.3599124,14.4537069 33.1644032,14.4537069 C32.0012051,14.4537069 31.1934286,13.7345009 31.1934286,12.4268535 Z M31.4127521,16.9307081 C31.4127521,16.7672522 31.4773742,16.7018698 31.6389295,16.7018698 L34.7112218,16.7018698 C34.8727771,16.7018698 34.9373992,16.7672522 34.9373992,16.9307081 L34.9373992,32.5707654 C34.9373992,32.7344195 34.9050881,32.7998019 34.7112218,32.7998019 L31.6712406,32.7998019 C31.4773742,32.7998019 31.4127521,32.7015302 31.4127521,32.5382724 L31.4127521,16.9307081 Z" id="Shape" fill="#D6D6D6"></path>
                </g>
                <g id="Group-9" transform="translate(59.200000, 4.800000)" fill="#9B9B9B" font-size="16">
                    <text id="Adobe" font-family="RobotoMono-Light, Roboto Mono" font-weight="300">
                        <tspan x="0" y="17">Adobe</tspan>
                    </text>
                    <text id="Illustrator" font-family="RobotoMono-Bold, Roboto Mono" font-weight="bold">
                        <tspan x="0" y="33">Illustrator</tspan>
                    </text>
                </g>
            </g>
            <g id="ps">
                <g id="Group-8" transform="translate(62.400000, 1.600000)" fill="#9B9B9B" font-size="16">
                    <text id="Adobe-Copy" font-family="RobotoMono-Light, Roboto Mono" font-weight="300">
                        <tspan x="0" y="17">Adobe</tspan>
                    </text>
                    <text id="Photoshop" font-family="RobotoMono-Bold, Roboto Mono" font-weight="bold">
                        <tspan x="0" y="33">Photoshop</tspan>
                    </text>
                </g>
                <g id="ps_cc_app_RGB">
                    <rect id="Rectangle-path" fill="#A8A8A8" x="1.57377049" y="1.60187354" width="45.6393443" height="44.0093677"></rect>
                    <path d="M0,0 L0,46.4262295 L48,46.4262295 L48,0 L0,0 Z M1.99999167,1.9840269 L46.0000083,1.9840269 L46.0000083,44.4422026 L1.99999167,44.4422026 L1.99999167,1.9840269 Z" id="Shape" fill="#D6D6D6"></path>
                    <path d="M11.8032787,10.5542757 C11.8032787,10.4242899 12.085471,10.3269975 12.2500001,10.3269975 C13.5333269,10.2620046 15.4173344,10.2295082 17.3916833,10.2295082 C22.9198604,10.2295082 25.0726984,13.2193781 25.0726984,17.0535648 C25.0726984,22.0580174 21.3976174,24.2029797 16.8895206,24.2029797 C16.1326869,24.2029797 15.8694404,24.1702863 15.3429473,24.1702863 L15.3429473,31.7370344 C15.3429473,31.8997135 15.2771357,31.9647064 15.1126066,31.9647064 L12.0336194,31.9647064 C11.8690903,31.9647064 11.8032787,31.8997135 11.8032787,31.7370344 L11.8032787,10.5542757 Z M15.3431467,21.018328 C15.8038282,21.0506275 16.1657921,21.0506275 16.9555317,21.0506275 C19.2918446,21.0506275 21.486164,20.2382164 21.486164,17.1185577 C21.486164,14.6163314 19.9170551,13.34897 17.251684,13.34897 C16.4619445,13.34897 15.7051107,13.3814664 15.3431467,13.4139629 L15.3431467,21.018328 Z M32.5084156,18.678387 C30.9289365,18.678387 30.4024434,19.4584987 30.4024434,20.1082306 C30.4024434,20.8233494 30.764208,21.3105991 32.8703796,22.3831788 C35.9964321,23.8780152 36.9836066,25.3078588 36.9836066,27.4201278 C36.9836066,30.5724799 34.5485762,32.2622951 31.2579946,32.2622951 C29.5139864,32.2622951 28.029635,31.9046372 27.1740838,31.4171906 C27.0424605,31.3521977 27.0095547,31.2549053 27.0095547,31.0922261 L27.0095547,28.2002394 C27.0095547,28.0052607 27.1082721,27.9402679 27.2398954,28.0375602 C28.4903164,28.8499714 29.9415626,29.2076292 31.2577952,29.2076292 C32.8372744,29.2076292 33.4953907,28.5575034 33.4953907,27.6800993 C33.4953907,26.9649806 33.0347092,26.3475481 31.0274545,25.3078588 C28.1975543,23.9753076 27.012945,22.6104569 27.012945,20.3359027 C27.012945,17.800983 29.0201997,15.6887141 32.5082162,15.6887141 C34.2193186,15.6887141 35.4274606,15.9486856 36.0855769,16.2411536 C36.250106,16.3388399 36.2830118,16.5011252 36.2830118,16.631111 L36.2830118,19.3285129 C36.2830118,19.4907982 36.1842944,19.5884845 35.9868595,19.5234916 C35.0986019,19.0035484 33.7919419,18.678387 32.5084156,18.678387 Z" id="Shape" fill="#D6D6D6"></path>
                </g>
            </g>
            <g id="id" transform="translate(404.800000, 0.800000)">
                <g id="Group-7" transform="translate(62.400000, 4.800000)" fill="#9B9B9B" font-size="16">
                    <text id="Adobe-Copy-2" font-family="RobotoMono-Light, Roboto Mono" font-weight="300">
                        <tspan x="0" y="17">Adobe</tspan>
                    </text>
                    <text id="Indesign" font-family="RobotoMono-Bold, Roboto Mono" font-weight="bold">
                        <tspan x="0" y="33">Indesign</tspan>
                    </text>
                </g>
                <g id="id_cc_app_RGB">
                    <rect id="Rectangle-path" fill="#A8A8A8" x="2.016" y="1.98290598" width="43.8174274" height="42.434188"></rect>
                    <path d="M0,0 L0,46.4 L47.801029,46.4 L47.801029,0 L0,0 Z M1.99170124,1.98290598 L45.8093278,1.98290598 L45.8093278,44.417094 L1.99170124,44.417094 L1.99170124,1.98290598 Z" id="Shape" fill="#D6D6D6"></path>
                    <path d="M17.4771784,32.1591658 C17.4771784,32.3550769 17.4443154,32.4205128 17.2142739,32.4205128 L14.1550207,32.4205128 C13.9578423,32.4205128 13.8921162,32.3225573 13.8921162,32.1591658 L13.8921162,10.8704889 C13.8921162,10.6741812 13.9907054,10.6087453 14.1550207,10.6087453 L17.2471369,10.6087453 C17.4114523,10.6087453 17.4771784,10.6741812 17.4771784,10.8377709 L17.4771784,32.1591658 Z M21.0004979,24.4795692 C21.0004979,19.7354667 24.1443983,16.0383385 29.172249,16.0383385 C29.599668,16.0383385 29.8297095,16.0383385 30.2240664,16.0708581 L30.2240664,10.805053 C30.2240664,10.6741812 30.3224564,10.6087453 30.4212448,10.6087453 L33.6617427,10.6087453 C33.8258589,10.6087453 33.8589212,10.6741812 33.8589212,10.772335 L33.8589212,29.3218256 C33.8589212,29.8780308 33.8589212,30.5651077 33.9573112,31.3176205 C33.9573112,31.4484923 33.9156846,31.4814085 33.7842324,31.5468444 C32.0753527,32.3647932 30.2676846,32.7244923 28.5590041,32.7244923 C24.1553527,32.7244923 21.0004979,30.0089026 21.0004979,24.4795692 Z M30.2240664,19.2774154 C29.9284979,19.1465436 29.5339419,19.0811077 29.041195,19.0811077 C26.4776763,19.0811077 24.6811618,21.0441846 24.6811618,24.3161778 C24.6811618,28.0458256 26.5105394,29.550653 28.8107552,29.550653 C29.3037012,29.550653 29.8295104,29.4852171 30.2240664,29.3218256 L30.2240664,19.2774154 Z" id="Shape" fill="#D6D6D6"></path>
                </g>
            </g>
            <g id="ae" transform="translate(591.200000, 0.000000)">
                <g id="Group-11" transform="translate(59.200000, 3.200000)" fill="#9B9B9B" font-size="16">
                    <text id="Adobe-Copy-3" font-family="RobotoMono-Light, Roboto Mono" font-weight="300">
                        <tspan x="0" y="17">Adobe</tspan>
                    </text>
                    <text id="After-Effects" font-family="RobotoMono-Bold, Roboto Mono" font-weight="bold">
                        <tspan x="0" y="33">After Effects</tspan>
                    </text>
                </g>
                <g id="ae_cc_app_RGB">
                    <rect id="Rectangle-path" fill="#A8A8A8" x="1.99170124" y="1.99170124" width="43.8174274" height="42.6224066"></rect>
                    <path d="M0,0 L0,46.6058091 L47.801029,46.6058091 L47.801029,0 L0,0 Z M1.99170124,1.99170124 L45.8093278,1.99170124 L45.8093278,44.6141079 L1.99170124,44.6141079 L1.99170124,1.99170124 Z" id="Shape" fill="#D6D6D6"></path>
                    <path d="M13.5109046,26.3900415 L11.9334772,32.3382573 C11.9004149,32.5023734 11.8346888,32.5643154 11.6375104,32.5643154 L8.71289627,32.5643154 C8.51571784,32.5643154 8.4826556,32.4985892 8.51571784,32.2687469 L14.1679668,12.4851784 C14.2667552,12.1238838 14.3324813,11.8386722 14.3651452,10.8529793 C14.3651452,10.721527 14.4308714,10.6558008 14.5296598,10.6558008 L18.7032697,10.6558008 C18.8343237,10.6558008 18.9000498,10.6888631 18.933112,10.8529793 L25.2758838,32.3014108 C25.3085477,32.4659253 25.2758838,32.5643154 25.1113693,32.5643154 L21.8250622,32.5643154 C21.6609461,32.5643154 21.5621577,32.5023734 21.5294938,32.3713195 L19.8863402,26.3900415 L13.5109046,26.3900415 Z M19.1004149,23.1567137 C18.5417427,20.954888 17.1911701,16.1258091 16.6982241,13.7925311 L16.6655602,13.7925311 C16.2383402,16.1258091 15.1596349,20.0655934 14.3380581,23.154722 L19.1004149,23.1567137 Z M29.7769295,25.1950207 C29.8099917,27.8899917 31.0918506,29.6972614 34.1150539,29.6972614 C35.2979253,29.6972614 36.3117012,29.5409129 37.3633195,29.0806307 C37.4947718,29.0149046 37.5935602,29.0479668 37.5935602,29.212083 L37.5935602,31.7098755 C37.5935602,31.9070539 37.527834,32.005444 37.3963817,32.1040332 C36.3449627,32.6300415 35.0352199,32.8598838 33.3920664,32.8598838 C28.1341743,32.8598838 26.1621909,28.9822407 26.1621909,24.6441162 C26.1621909,19.9448963 28.5938589,16.1001162 32.8664564,16.1001162 C37.2041826,16.1001162 38.7158838,19.7477178 38.7158838,22.7053942 C38.7158838,23.6584232 38.6501577,24.4473361 38.5517676,24.8086307 C38.5187054,24.9727469 38.4529793,25.0307054 38.2888631,25.0633693 C37.8945062,25.1290954 36.7114357,25.1948216 34.9694938,25.1948216 L29.7769295,25.1948216 L29.7769295,25.1950207 Z M33.8190871,22.4564315 C34.8378423,22.4564315 35.1997344,22.4564315 35.2981245,22.4237676 C35.2981245,22.2923154 35.3311867,22.1793859 35.3311867,22.0809959 C35.3311867,20.9965145 34.8051784,19.0060083 32.7350041,19.0060083 C30.8289461,19.0060083 30.0073693,20.6818257 29.8099917,22.4564315 L33.8190871,22.4564315 Z" id="Shape" fill="#D6D6D6"></path>
                </g>
            </g>
        </g>
    </g>
</svg>