<?xml version="1.0" encoding="UTF-8"?>
<svg width="524px" height="54px" viewBox="0 0 524 54" version="1.1" xmlns="http://www.w3.org/2000/svg" xmlns:xlink="http://www.w3.org/1999/xlink">
    <!-- Generator: Sketch 48.2 (47327) - http://www.bohemiancoding.com/sketch -->
    <title>Group 6</title>
    <desc>Created with Sketch.</desc>
    <defs></defs>
    <g id="2.0_About" stroke="none" stroke-width="1" fill="none" fill-rule="evenodd" transform="translate(-455.000000, -890.000000)">
        <g id="Group-6" transform="translate(455.000000, 890.000000)">
            <g id="sketch" transform="translate(183.200000, 8.000000)" fill-rule="nonzero">
                <path d="M54.1867262,23.9798791 L54.1558606,23.5699826 L53.7418829,23.5699826 L51.1724338,23.5699826 L50.7076923,23.5699826 L50.7267231,24.0310397 C50.9387505,29.1678004 54.4265669,32.570115 60.6294337,32.570115 C66.5454664,32.570115 70.5682051,29.5182485 70.5682051,24.8987422 C70.5682051,22.4008648 69.6954166,20.6332026 68.0322841,19.426008 C66.752948,18.4973945 65.2232792,17.9739669 62.686733,17.4278833 C62.5172528,17.3913966 62.3406005,17.3540498 62.1289114,17.3098207 C62.0032079,17.2835569 61.5521842,17.1898134 61.5761206,17.194796 C56.9695804,16.2359093 55.508379,15.4029292 55.508379,12.9221882 C55.508379,10.356919 57.6211767,8.72330744 61.1647355,8.72330744 C64.6123446,8.72330744 66.7912079,10.8139921 66.8926745,14.1050491 L66.9059122,14.5344166 L67.3385505,14.5344166 L69.8723127,14.5344166 L70.3288106,14.5344166 L70.3182789,14.0812782 C70.1990491,8.95131224 66.7324538,5.49885058 61.1290487,5.49885058 C55.6372302,5.49885058 52.0110734,8.77997552 52.0110734,13.0284889 C52.0110734,15.5193043 52.8829375,17.2538918 54.5486926,18.4128259 C55.817675,19.2957091 57.2877213,19.763757 59.8809447,20.2836147 C60.0023938,20.3079613 60.1291065,20.3330941 60.2799601,20.3628073 C60.3733378,20.3811997 60.4787994,20.4019055 60.6767204,20.4407551 C63.1303483,20.9227758 64.2129669,21.2202876 65.2006258,21.7905315 C66.4267058,22.4984325 67.0352127,23.5096043 67.0352127,25.0759102 C67.0352127,27.7953548 64.7323934,29.3456581 60.7008072,29.3456581 C56.841252,29.3456581 54.4460546,27.423789 54.1867262,23.9798791 Z M77.7741823,5.09632926 L77.7741823,4.65287356 L77.3310964,4.65287356 L74.814368,4.65287356 L74.3712821,4.65287356 L74.3712821,5.09632926 L74.3712821,31.7036707 L74.3712821,32.1471264 L74.814368,32.1471264 L77.3310964,32.1471264 L77.7741823,32.1471264 L77.7741823,31.7036707 L77.7741823,26.9595712 L81.3561816,23.4681045 L87.7529872,31.9704211 L87.8859328,32.1471264 L88.1069472,32.1471264 L91.2262728,32.1471264 L92.1189744,32.1471264 L91.5791776,31.4355229 L83.7670456,21.1369483 L90.9716864,13.9604694 L91.7324304,13.2026993 L90.6591224,13.2026993 L87.2916688,13.2026993 L87.107216,13.2026993 L86.9772512,13.3336984 L77.7741823,22.610003 L77.7741823,5.09632926 Z M109.806533,23.8056112 L110.226414,23.8056112 L110.252605,23.3880406 C110.257211,23.3145981 110.264043,23.193199 110.27087,23.0469389 C110.276274,22.9311638 110.280731,22.8183466 110.283918,22.7116834 C110.28737,22.5960954 110.28923,22.4909505 110.28923,22.3983026 C110.28923,16.8083881 106.573518,12.6896552 101.082209,12.6896552 C95.6012176,12.6896552 91.6964104,17.0739238 91.6964104,22.612071 C91.6964104,28.3109214 95.424228,32.570115 101.117965,32.570115 C105.423165,32.570115 108.749137,30.024784 109.947477,26.1639529 L110.12655,25.5870144 L109.520489,25.5870144 L106.874588,25.5870144 L106.558934,25.5870144 L106.453377,25.8834355 C105.700864,27.9965978 103.6635,29.3992172 101.15372,29.3992172 C97.8725624,29.3992172 95.585272,27.1539234 95.1732264,23.8056112 L109.806533,23.8056112 Z M95.0769232,21.1494253 C95.6506288,18.0985722 97.8417608,16.0735632 100.825087,16.0735632 C103.899961,16.0735632 106.021995,18.0321213 106.486154,21.1494253 L95.0769232,21.1494253 Z M121.25545,16.1797762 L121.698462,16.1797762 L121.698462,15.7372222 L121.698462,13.6129627 L121.698462,13.1704086 L121.25545,13.1704086 L117.551881,13.1704086 L117.551881,8.47933568 L117.551881,8.0367816 L117.10887,8.0367816 L114.592569,8.0367816 L114.149558,8.0367816 L114.149558,8.47933568 L114.149558,13.1704086 L111.154806,13.1704086 L110.711795,13.1704086 L110.711795,13.6129627 L110.711795,15.7372222 L110.711795,16.1797762 L111.154806,16.1797762 L114.149558,16.1797762 L114.149558,26.7833713 C114.149558,30.261843 115.955616,32.1471264 119.270762,32.1471264 C119.849393,32.1471264 120.348206,32.1125223 120.767062,32.0544079 C121.025876,32.0184986 121.204603,31.9813021 121.303138,31.9539595 L121.62758,31.8639298 L121.62758,31.5275508 L121.62758,29.261674 L121.62758,28.7125759 L121.090461,28.8292206 C121.068992,28.8338829 121.025502,28.8427236 120.963379,28.8543596 C120.858117,28.8740758 120.740869,28.8938609 120.615082,28.9123399 C120.292949,28.9596634 119.973445,28.9899944 119.679291,28.9953178 C119.649034,28.9958654 119.619174,28.9961416 119.58973,28.9961416 C118.137482,28.9961416 117.551881,28.3147169 117.551881,26.6063497 L117.551881,16.1797762 L121.25545,16.1797762 Z M131.809501,32.570115 C136.482146,32.570115 139.781356,29.5743178 140.609897,25.3350562 L140.713846,24.803197 L140.17871,24.803197 L137.646849,24.803197 L137.308869,24.803197 L137.222042,25.1341366 C136.51226,27.8394496 134.585754,29.3992172 131.809501,29.3992172 C128.344822,29.3992172 125.95457,26.6301308 125.95457,22.6476991 C125.95457,18.6344614 128.34067,15.8605529 131.809501,15.8605529 C134.585754,15.8605529 136.51226,17.4203205 137.222042,20.1256335 L137.308869,20.4565731 L137.646849,20.4565731 L140.17871,20.4565731 L140.713846,20.4565731 L140.609897,19.9247138 C139.781356,15.6854523 136.482146,12.6896552 131.809501,12.6896552 C126.381584,12.6896552 122.54359,17.10491 122.54359,22.6476991 C122.54359,28.1600023 126.386868,32.570115 131.809501,32.570115 Z M147.0672,5.09632926 L147.0672,4.65287356 L146.62509,4.65287356 L144.113905,4.65287356 L143.671795,4.65287356 L143.671795,5.09632926 L143.671795,31.7036707 L143.671795,32.1471264 L144.113905,32.1471264 L146.62509,32.1471264 L147.0672,32.1471264 L147.0672,31.7036707 L147.0672,21.0252577 C147.0672,17.771751 149.04152,15.8634334 152.036517,15.8634334 C154.897031,15.8634334 156.333826,17.5244408 156.333826,20.6704931 L156.333826,31.7036707 L156.333826,32.1471264 L156.775936,32.1471264 L159.287121,32.1471264 L159.72923,32.1471264 L159.72923,31.7036707 L159.72923,20.1738228 C159.72923,15.729823 156.98583,12.7769818 152.460942,12.7769818 C150.133035,12.7769818 148.261849,13.6324506 147.0672,14.8602656 L147.0672,5.09632926 Z" id="Shape" fill="#9D9D9D"></path>
                <polygon id="Shape" fill="#CFCFCF" points="8.8507972 1.19768062 20.283077 0 31.7153566 1.19768062 40.5661538 12.9714902 20.283077 36.3770115 0 12.9714902"></polygon>
                <g id="Group" transform="translate(0.000000, 13.112644)">
                    <polygon id="Shape" fill="#A8A8A8" points="8.216 0 20.2832 23.264 0 0"></polygon>
                    <polygon id="Shape" fill="#A8A8A8" transform="translate(30.424430, 11.632000) scale(-1, 1) translate(-30.424430, -11.632000) " points="28.4980304 0 40.5660304 23.264 20.2828304 0"></polygon>
                    <polygon id="Shape" fill="#D6D6D6" points="8.0288 0 32.1152 0 20.072 23.264"></polygon>
                </g>
                <polygon id="Shape" fill="#E3E3E3" points="19.8608 0 8.6512 1.2104 8.0288 13.1128"></polygon>
                <polygon id="Shape" fill="#E3E3E3" transform="translate(26.198749, 6.556400) scale(-1, 1) translate(-26.198749, -6.556400) " points="32.1147488 0 20.9051488 1.2104 20.2827488 13.1128"></polygon>
                <polygon id="Shape" fill="#CACACA" transform="translate(36.129261, 7.190800) scale(-1, 1) translate(-36.129261, -7.190800) " points="31.6920608 13.1128 40.5664608 1.2688 39.9296608 13.1128"></polygon>
                <polygon id="Shape" fill="#CACACA" points="0 13.1128 8.8736 1.2688 8.2368 13.1128"></polygon>
                <polygon id="Shape" fill="#F3F3F3" points="20.072 0 8.0288 13.1128 32.1152 13.1128"></polygon>
            </g>
            <g id="invision" transform="translate(0.000000, 4.000000)">
                <text id="InVision" font-family="RobotoMono-Bold, Roboto Mono" font-size="16" font-weight="bold" fill="#9B9B9B">
                    <tspan x="60" y="29.8">InVision</tspan>
                </text>
                <g fill-rule="nonzero" id="Shape">
                    <path d="M41.4662531,0 L4.13374687,0 C1.85071875,0 0,1.85071875 0,4.13374687 L0,41.4662531 C0,43.7492813 1.85071875,45.6 4.13374687,45.6 L41.4662531,45.6 C43.7492813,45.6 45.6,43.7492813 45.6,41.4662531 L45.6,4.13374687 C45.6,1.85071875 43.7492813,0 41.4662531,0" fill="#A8A8A8"></path>
                    <path d="M15.2394844,14.3470781 C16.7553281,14.3470781 18.0251813,13.1589844 18.0251813,11.6018156 C18.0251813,10.0457156 16.7553281,8.8578 15.2394844,8.8578 C13.7236406,8.8578 12.4541438,10.0457156 12.4541438,11.6018156 C12.4541438,13.1588062 13.7236406,14.3470781 15.2394844,14.3470781 M9.46360312,29.0459531 C9.29990625,29.7424219 9.21779062,30.4944656 9.21779062,31.1079281 C9.21779062,33.5252625 10.5286125,35.1299906 13.3143094,35.1299906 C15.6245906,35.1299906 17.497575,33.7580719 18.8461594,31.5427312 L18.0226875,34.8474844 L22.6102969,34.8474844 L25.2322969,24.3311625 C25.8877969,21.66855 27.15765,20.2864781 29.0831813,20.2864781 C30.5988469,20.2864781 31.54095,21.2291156 31.54095,22.7852156 C31.54095,23.23605 31.4999813,23.7271406 31.3361063,24.2599125 L29.9841375,29.0936906 C29.7792938,29.7901594 29.6977125,30.4869844 29.6977125,31.14195 C29.6977125,33.4367344 31.0491469,35.1152062 33.8758125,35.1152062 C36.2927906,35.1152062 38.2179656,33.5592844 39.2831531,29.8313063 L37.4808844,29.13555 C36.5795719,31.6330406 35.8011656,32.0845875 35.1866344,32.0845875 C34.5721031,32.0845875 34.2443531,31.6752563 34.2443531,30.8564156 C34.2443531,30.4876969 34.3266469,30.0785438 34.4491969,29.58585 L35.760375,24.8765813 C36.0879469,23.7707813 36.2110312,22.7902031 36.2110312,21.8892469 C36.2110312,18.3662906 34.0806562,16.5276844 31.4999812,16.5276844 C29.0831812,16.5276844 26.6250563,18.7077563 25.39635,21.0021844 L26.2973062,16.8839344 L19.2927187,16.8839344 L18.3094688,20.5112719 L21.5867906,20.5112719 L19.5686344,28.5910219 C17.9838563,32.1139781 15.0727594,32.1711562 14.707425,32.0893969 C14.1075,31.9540219 13.7238188,31.7262 13.7238188,30.946725 C13.7238188,30.4969594 13.8057563,29.8509 14.0106,29.0719594 L17.0832563,16.8839344 L9.29990625,16.8839344 L8.31665625,20.5112719 L11.5526531,20.5112719 L9.46378125,29.0459531" fill="#FFFFFF"></path>
                </g>
            </g>
            <g id="reactjs" transform="translate(388.000000, 0.000000)">
                <text id="ReactJS" font-family="RobotoMono-Bold, Roboto Mono" font-size="16" font-weight="bold" fill="#9B9B9B">
                    <tspan x="68.6" y="31.4">ReactJS</tspan>
                </text>
                <g id="react" fill-rule="nonzero">
                    <path d="M0.1743625,26.5359375 C0.1743625,30.9794063 4.51330625,35.1273375 11.3536812,37.4655063 C9.9876875,44.3421875 11.1090187,49.8850188 14.8538812,52.0446625 C18.7030375,54.2646625 24.437575,52.7280063 29.8805062,47.9700375 C35.186075,52.5358375 40.5480687,54.33265 44.2896937,52.1667625 C48.1353812,49.9405188 49.3048125,44.0219063 47.901125,36.9303938 C55.0259375,34.5748812 59.0113,31.0379125 59.0113,26.5359375 C59.0113,22.1956063 54.6644937,18.4408 47.9161563,16.1176625 C49.427375,8.73315625 48.1469437,3.3249125 44.2469125,1.07600625 C40.4870188,-1.09219375 35.0625875,0.79758125 29.6790875,5.48270625 C24.0782125,0.50990625 18.7074312,-1.00825 14.8115625,1.2469 C11.0551375,3.42134375 9.98329375,9.065 11.3536812,16.0688688 C4.74409375,18.373275 0.1743625,22.2131813 0.1743625,26.5359375 Z" id="Shape" fill="#FFFFFF"></path>
                    <path d="M46.4870313,18.4246125 C45.9308677,18.2338376 45.3699856,18.0571065 44.8049187,17.8945875 C44.8986271,17.5138126 44.9852836,17.1313367 45.0648437,16.7473563 C46.3381062,10.5665063 45.5056062,5.58723125 42.6626187,3.94813125 C39.936875,2.37609375 35.4788375,4.01519375 30.9764,7.9332625 C30.532743,8.32022309 30.0989337,8.71833137 29.6753875,9.12720625 C29.3917501,8.85532868 29.1031006,8.58872878 28.8095875,8.32754375 C24.0909312,4.13775625 19.361175,2.37239375 16.5211937,4.01635 C13.7979937,5.59278125 12.9913937,10.273975 14.1377,16.1315375 C14.2517495,16.7116071 14.3805202,17.288685 14.5238875,17.8622125 C13.85465,18.0523 13.2083062,18.254875 12.5899437,18.4704 C7.05798125,20.399025 3.52494375,23.421925 3.52494375,26.5572125 C3.52494375,29.7956375 7.31744375,33.043775 13.0797312,35.0131 C13.5469677,35.1720452 14.0180931,35.3193201 14.4926687,35.4547875 C14.3384948,36.0726737 14.2016185,36.6947477 14.0822,37.3202813 C12.9893125,43.0760938 13.8428562,47.6462875 16.5588875,49.2130063 C19.3641812,50.8306 24.0724312,49.1679125 28.6571937,45.16035 C29.0195625,44.8435375 29.3833187,44.5075313 29.7475375,44.1553375 C30.2062963,44.5979638 30.6773042,45.0277161 31.1600125,45.4440938 C35.6009375,49.2655 39.986825,50.8086313 42.7005437,49.23775 C45.5032937,47.6153 46.4139562,42.7056313 45.2313437,36.7322125 C45.1411562,36.2759563 45.0359375,35.8099875 44.918,35.3354625 C45.2486875,35.237875 45.5731312,35.13705 45.8897125,35.0320625 C51.8800125,33.047475 55.7772687,29.8388813 55.7772687,26.5572125 C55.7772687,23.4105938 52.1304562,20.3673438 46.4870313,18.4246125 Z" id="Shape" fill="#A8A8A8"></path>
                    <path d="M45.1876375,32.91335 C44.9020438,33.0079312 44.6088188,33.099275 44.3100438,33.1878437 C43.6486688,31.0943375 42.7560438,28.8680938 41.6640813,26.5683125 C42.706325,24.322875 43.5642625,22.1253063 44.2071375,20.0452125 C44.7415563,20.20015 45.2604813,20.3631813 45.7604438,20.5354625 C50.5958813,22.1997688 53.5452438,24.6609625 53.5452438,26.5572125 C53.5452438,28.5771813 50.359775,31.1995563 45.1878688,32.91335 L45.1876375,32.91335 Z M43.0416375,37.1658062 C43.5644938,39.8071437 43.6391875,42.1952625 43.292775,44.0621437 C42.9815125,45.7396312 42.35575,46.8579562 41.5819875,47.3058875 C39.9352563,48.2591 36.41355,47.0200625 32.6159625,43.7520375 C32.1805188,43.3774125 31.7418375,42.97735 31.302,42.5541625 C32.7743688,40.9437375 34.2458125,39.0715375 35.681875,36.9926 C38.20805,36.7685187 40.59455,36.4019875 42.7588188,35.9017937 C42.8651938,36.3319187 42.9600063,36.7534875 43.0416375,37.1658062 Z M21.338825,47.1412375 C19.7300188,47.7094187 18.4486625,47.7256062 17.6742063,47.2790625 C16.0258563,46.328625 15.3408938,42.6586875 16.275375,37.7365312 C16.3864999,37.1548358 16.5137363,36.5763343 16.6569375,36.0016937 C18.7971563,36.4750625 21.1663125,36.8156937 23.6985,37.0210437 C25.1440438,39.05535 26.6580375,40.9252375 28.183825,42.5627187 C27.8595545,42.8764009 27.5276102,43.1820519 27.1882938,43.4793937 C25.160925,45.2516937 23.1293938,46.5087687 21.3390563,47.1412375 L21.338825,47.1412375 Z M13.8016938,32.9008625 C11.2537813,32.029975 9.1496375,30.8982375 7.70733125,29.6633625 C6.41140625,28.5533625 5.75696875,27.4514563 5.75696875,26.5572125 C5.75696875,24.6547188 8.5937125,22.22775 13.3248563,20.5782437 C13.9186829,20.3721115 14.5184169,20.1834078 15.1232875,20.012375 C15.7772625,22.1391813 16.6349688,24.3628813 17.6700438,26.6115563 C16.6215563,28.8937625 15.7515938,31.1528438 15.0916063,33.304625 C14.6583921,33.180627 14.2282913,33.0459988 13.8016938,32.9008625 Z M16.3283313,15.7028 C15.3462125,10.6839812 15.9983375,6.8981875 17.6395188,5.9482125 C19.3877688,4.9362625 23.2531125,6.3792625 27.327275,9.99670625 C27.5876625,10.2279562 27.8492063,10.470075 28.1112125,10.7205188 C26.5932875,12.3506 25.0931688,14.2063812 23.6601125,16.2288938 C21.2026188,16.456675 18.8501125,16.8225125 16.6874625,17.3125313 C16.5542448,16.7789796 16.4344963,16.242155 16.3283313,15.7025688 L16.3283313,15.7028 Z M38.867575,21.2682938 C38.3567616,20.3859432 37.8269991,19.5146994 37.2786563,18.6551688 C38.9459688,18.8656062 40.5432125,19.1454188 42.0431,19.4879 C41.5928563,20.9311313 41.0316125,22.4402688 40.3707,23.9873313 C39.8878077,23.0710701 39.3866661,22.1645436 38.867575,21.2682938 Z M29.6760813,12.3156813 C30.7056063,13.431 31.73675,14.6765125 32.7510125,16.0277062 C30.6935837,15.9304842 28.6327222,15.9300212 26.57525,16.0263187 C27.5904375,14.6876125 28.6303688,13.44395 29.6760813,12.3156812 Z M20.4256188,21.2835563 C19.9130268,22.1726783 19.4212554,23.0736423 18.9507062,23.9857125 C18.3006625,22.4439688 17.7445062,20.928125 17.2903312,19.4643125 C18.7812,19.1306188 20.3710437,18.857975 22.0274875,18.6510063 C21.4729993,19.5158638 20.9388959,20.3936224 20.4256187,21.2835563 Z M22.075125,34.62275 C20.363875,34.4317375 18.7499813,34.1729687 17.259575,33.848525 C17.7209188,32.3588125 18.2893313,30.8103625 18.95325,29.23555 C19.4257828,30.1482962 19.9197152,31.0498038 20.4346375,31.939325 C20.9600633,32.8467102 21.5070478,33.7414394 22.075125,34.62275 Z M29.737825,40.9564563 C28.6798563,39.814775 27.6246625,38.55215 26.5939813,37.1940188 C27.5943688,37.2333313 28.6144125,37.2532188 29.6511063,37.2532188 C30.7162438,37.2532188 31.769125,37.2294 32.8053563,37.18315 C31.7878563,38.566025 30.7604125,39.8305 29.737825,40.9564563 Z M40.391975,29.1553063 C41.09035,30.7472313 41.6791125,32.2873563 42.1467,33.7518625 C40.63155,34.0975813 38.9959188,34.3760063 37.2724125,34.5827438 C37.8247188,33.7071651 38.3595517,32.8206856 38.8765938,31.9238313 C39.4021985,31.0123468 39.9074507,30.0892765 40.391975,29.1553063 Z M36.9428813,30.8087438 C36.1513587,32.1837461 35.3153336,33.5326464 34.4361313,34.8533062 C32.8858313,34.964075 31.2837313,35.0211937 29.6511063,35.0211937 C28.0251875,35.0211937 26.4434375,34.97055 24.9201937,34.8718062 C24.0181884,33.5542213 23.1663481,32.2029865 22.3665,30.821 C21.5703905,29.4463458 20.8267714,28.0419547 20.13725,26.6108625 C20.8250176,25.1793416 21.5663896,23.7741982 22.3597937,22.3984125 L22.3597937,22.398875 C23.152949,21.0227963 23.9980831,19.6773391 24.8933687,18.3654125 C26.4473687,18.2479375 28.0406812,18.186425 29.6513375,18.186425 C31.2691625,18.186425 32.8645562,18.2484 34.4180937,18.3668 C35.3043237,19.6767078 36.1440525,21.0174817 36.9357125,22.3866188 C37.7318449,23.7593436 38.483111,25.1576039 39.1883187,26.5791813 C38.4903651,28.0152423 37.7414884,29.4259906 36.9431125,30.8087438 L36.9428813,30.8087438 Z M41.5477625,5.88184375 C43.2974,6.89101875 43.9779687,10.960325 42.8786062,16.2968812 C42.8065489,16.6445256 42.7282195,16.9908404 42.6436562,17.3356562 C40.4759187,16.8354625 38.1217937,16.46315 35.6571312,16.2319 C34.2213,14.1874187 32.7336687,12.3284 31.2402563,10.7193625 C31.6315921,10.3420892 32.0322407,9.97459666 32.4418313,9.617225 C36.2995438,6.2599375 39.9049625,4.9344125 41.5477625,5.88184375 Z" id="Shape" fill="#FFFFFF"></path>
                    <path d="M29.6511062,21.8912813 C32.2281562,21.8912813 34.3170375,23.9803938 34.3170375,26.5572125 C34.3170375,29.1342625 32.2281562,31.223375 29.6511062,31.223375 C27.0742875,31.223375 24.985175,29.1342625 24.985175,26.5572125 C24.985175,23.9803938 27.0742875,21.8912813 29.6511062,21.8912813" id="Shape" fill="#A8A8A8"></path>
                </g>
            </g>
        </g>
    </g>
</svg>