<?xml version="1.0" encoding="UTF-8"?>
<svg width="14px" height="14px" viewBox="0 0 14 14" version="1.1" xmlns="http://www.w3.org/2000/svg" xmlns:xlink="http://www.w3.org/1999/xlink">
    <!-- Generator: Sketch 48.2 (47327) - http://www.bohemiancoding.com/sketch -->
    <title>behance-logo</title>
    <desc>Created with Sketch.</desc>
    <defs></defs>
    <g id="1.0_Home" stroke="none" stroke-width="1" fill="none" fill-rule="evenodd" transform="translate(-638.000000, -1705.000000)">
        <g id="contact" transform="translate(621.000000, 1654.000000)">
            <g id="Group-4" transform="translate(18.000000, 48.000000)">
                <g id="behance-logo" transform="translate(0.000000, 4.000000)">
                    <path d="M9.72479521,4.00052016 L7.48366031,4.00052016 L7.48366031,3.44383916 L9.72498236,3.44383916 L9.72498236,4.00052016 L9.72479521,4.00052016 Z M5.99168453,6.28328656 C6.13629266,6.50726904 6.20855514,6.77922549 6.20855514,7.09851126 C6.20855514,7.42869359 6.1270805,7.72489695 5.9613239,7.9865391 C5.85587267,8.15967791 5.72494762,8.30592884 5.56763377,8.42366989 C5.39046074,8.55983527 5.18070201,8.65320463 4.93956369,8.70309173 C4.69765595,8.75306201 4.43582665,8.77830709 4.15378465,8.77830709 L1.64736848,8.77830709 L1.64736848,3.21295276 L4.33511667,3.21295276 C5.01259557,3.22397408 5.4928967,3.42025768 5.77651911,3.8057338 C5.94670504,4.04215166 6.03102859,4.32583647 6.03102859,4.6555821 C6.03102859,4.99582919 5.94568609,5.26807676 5.77383656,5.4749242 C5.67824215,5.59089767 5.53702359,5.69639049 5.35007693,5.7916106 C5.63324186,5.89527346 5.84809536,6.05851387 5.99168453,6.28328656 Z M2.93087482,5.40709105 L4.10853482,5.40709105 C4.35054653,5.40709105 4.54618548,5.3610926 4.69686574,5.2691373 C4.84744203,5.17732757 4.92257421,5.01412875 4.92257421,4.77981117 C4.92257421,4.52093475 4.82309113,4.34910602 4.6236467,4.26640448 C4.45221307,4.20894801 4.23286787,4.17935679 3.96671321,4.17935679 L2.93087482,4.17935679 L2.93087482,5.40709105 Z M5.03596911,7.01901214 C5.03596911,6.72992065 4.91781216,6.53006032 4.68197655,6.42282072 C4.55009494,6.3618707 4.36402166,6.33071986 4.12544112,6.3284948 L2.93087482,6.3284948 L2.93087482,7.81163272 L4.1069544,7.81163272 C4.34857101,7.81163272 4.53558006,7.78000359 4.67053933,7.71402119 C4.9139235,7.59270341 5.03596911,7.361817 5.03596911,7.01901214 Z M10.5563232,6.11362051 C10.5833982,6.29570115 10.5956464,6.55988028 10.5906764,6.90518054 L7.68815792,6.90518054 C7.70417003,7.30581618 7.84247729,7.58598664 8.10478488,7.74631576 C8.26297212,7.84685937 8.454764,7.89595627 8.67934954,7.89595627 C8.91616251,7.89595627 9.1091813,7.83608759 9.25776127,7.71302303 C9.33871604,7.64778925 9.41012592,7.55570918 9.47186614,7.43952776 L10.5357361,7.43952776 C10.5078709,7.67615357 10.379774,7.91614817 10.1495738,8.16003143 C9.79291949,8.54767022 9.29271759,8.74204068 8.65031978,8.74204068 C8.11963248,8.74204068 7.6519331,8.57811404 7.24597395,8.25144606 C6.84136647,7.92363436 6.63815815,7.39199049 6.63815815,6.65449734 C6.63815815,5.96291945 6.82059231,5.43358382 7.18668753,5.06513878 C7.55413442,4.6960075 8.02834262,4.51228405 8.61286806,4.51228405 C8.95933284,4.51228405 9.2716523,4.57421143 9.55028393,4.69871084 C9.82804217,4.82333502 10.0575977,5.01947305 10.2383891,5.28903808 C10.4020038,5.52643331 10.5072263,5.80092674 10.5563232,6.11362051 Z M9.5091515,6.21747052 C9.48964583,5.94044011 9.39714986,5.73076455 9.23060305,5.58746651 C9.06542871,5.44377335 8.85908035,5.37163565 8.61286806,5.37163565 C8.34490425,5.37163565 8.13799443,5.44874335 7.99097408,5.60029699 C7.84295558,5.75153872 7.75085471,5.95715925 7.71311186,6.21749132 L9.5091515,6.21749132 L9.5091515,6.21747052 Z" id="Behance" fill="#FFFFFF" fill-rule="nonzero"></path>
                    <rect id="Rectangle" stroke="#FFFFFF" stroke-width="0.7" x="-0.35" y="-0.35" width="12.7" height="12.7"></rect>
                </g>
            </g>
        </g>
    </g>
</svg>