<?xml version="1.0" encoding="UTF-8"?>
<svg width="12px" height="12px" viewBox="0 0 12 12" version="1.1" xmlns="http://www.w3.org/2000/svg" xmlns:xlink="http://www.w3.org/1999/xlink">
    <!-- Generator: Sketch 48.2 (47327) - http://www.bohemiancoding.com/sketch -->
    <title>instagram-logo</title>
    <desc>Created with Sketch.</desc>
    <defs></defs>
    <g id="1.0_Home" stroke="none" stroke-width="1" fill="none" fill-rule="evenodd" transform="translate(-632.000000, -1730.000000)">
        <g id="contact" transform="translate(621.000000, 1654.000000)" fill="#FFFFFF" fill-rule="nonzero">
            <g id="Group-5" transform="translate(11.000000, 72.000000)">
                <g id="instagram-logo" transform="translate(0.000000, 4.000000)">
                    <path d="M8.64042353,0 L3.29322353,0 C1.47734118,0 0,1.47741176 0,3.29329412 L0,8.64049412 C0,10.4564471 1.47734118,11.9337882 3.29322353,11.9337882 L8.64042353,11.9337882 C10.4564471,11.9337882 11.9337882,10.4563765 11.9337882,8.64049412 L11.9337882,3.29329412 C11.9338588,1.47741176 10.4564471,0 8.64042353,0 Z M10.8750353,8.64049412 C10.8750353,9.87261176 9.87261176,10.8749647 8.64049412,10.8749647 L3.29322353,10.8749647 C2.06117647,10.8750353 1.05882353,9.87261176 1.05882353,8.64049412 L1.05882353,3.29329412 C1.05882353,2.06124706 2.06117647,1.05882353 3.29322353,1.05882353 L8.64042353,1.05882353 C9.87254118,1.05882353 10.8749647,2.06124706 10.8749647,3.29329412 L10.8749647,8.64049412 L10.8750353,8.64049412 Z" id="Shape"></path>
                    <path d="M5.96689412,2.892 C4.27129412,2.892 2.89185882,4.27143529 2.89185882,5.96703529 C2.89185882,7.66256471 4.27129412,9.04192941 5.96689412,9.04192941 C7.66249412,9.04192941 9.04192941,7.66256471 9.04192941,5.96703529 C9.04192941,4.27143529 7.66249412,2.892 5.96689412,2.892 Z M5.96689412,7.98303529 C4.8552,7.98303529 3.95068235,7.07865882 3.95068235,5.96696471 C3.95068235,4.8552 4.85512941,3.95075294 5.96689412,3.95075294 C7.07865882,3.95075294 7.98310588,4.8552 7.98310588,5.96696471 C7.98310588,7.07865882 7.07858824,7.98303529 5.96689412,7.98303529 Z" id="Shape"></path>
                    <path d="M8.99442353,1.99418824 C8.83678717,1.99418824 8.68193262,2.05800642 8.57060535,2.1698246 C8.45873262,2.28109733 8.39442353,2.43600642 8.39442353,2.59418824 C8.39442353,2.75187914 8.45878717,2.90673369 8.57060535,3.01855187 C8.68187807,3.1298246 8.83678717,3.19418824 8.99442353,3.19418824 C9.15260535,3.19418824 9.30696898,3.1298246 9.41878717,3.01855187 C9.53060535,2.90673369 9.59442353,2.7518246 9.59442353,2.59418824 C9.59442353,2.43600642 9.53060535,2.28109733 9.41878717,2.1698246 C9.30751444,2.05800642 9.15260535,1.99418824 8.99442353,1.99418824 Z" id="Shape"></path>
                </g>
            </g>
        </g>
    </g>
</svg>