<?xml version="1.0" encoding="UTF-8"?>
<svg width="18px" height="18px" viewBox="0 0 18 18" version="1.1" xmlns="http://www.w3.org/2000/svg" xmlns:xlink="http://www.w3.org/1999/xlink">
    <!-- Generator: Sketch 48.2 (47327) - http://www.bohemiancoding.com/sketch -->
    <title>behance-logo</title>
    <desc>Created with Sketch.</desc>
    <defs></defs>
    <g id="3.0_Contact" stroke="none" stroke-width="1" fill="none" fill-rule="evenodd" transform="translate(-622.000000, -420.000000)">
        <g id="contact" transform="translate(602.000000, 359.000000)">
            <g id="Group-4" transform="translate(21.000000, 60.000000)">
                <g id="behance-logo" transform="translate(0.000000, 2.000000)">
                    <path d="M12.9663936,5.33402688 L9.97821375,5.33402688 L9.97821375,4.59178555 L12.9666431,4.59178555 L12.9666431,5.33402688 L12.9663936,5.33402688 Z M7.98891271,8.37771541 C8.18172355,8.67635872 8.27807352,9.03896732 8.27807352,9.46468168 C8.27807352,9.90492478 8.16944066,10.2998626 7.94843186,10.6487188 C7.80783023,10.8795705 7.63326349,11.0745718 7.42351169,11.2315599 C7.18728098,11.4131137 6.90760268,11.5376062 6.58608491,11.6041223 C6.26354127,11.6707493 5.91443553,11.7044094 5.53837953,11.7044094 L2.19649131,11.7044094 L2.19649131,4.28393701 L5.78015556,4.28393701 C6.68346077,4.29863211 7.32386226,4.56034358 7.70202548,5.07431173 C7.92894005,5.38953555 8.04137146,5.76778196 8.04137146,6.2074428 C8.04137146,6.66110558 7.92758145,7.02410235 7.69844875,7.29989893 C7.57098953,7.45453023 7.38269813,7.59518732 7.13343591,7.72214746 C7.51098915,7.86036461 7.79746047,8.07801849 7.98891271,8.37771541 Z M3.90783309,7.20945473 L5.47804643,7.20945473 C5.80072871,7.20945473 6.06158065,7.14812347 6.26248766,7.02551641 C6.46325604,6.90310343 6.56343227,6.685505 6.56343227,6.37308156 C6.56343227,6.027913 6.43078818,5.79880803 6.16486227,5.68853931 C5.9362841,5.61193069 5.64382382,5.57247572 5.28895095,5.57247572 L3.90783309,5.57247572 L3.90783309,7.20945473 Z M6.71462547,9.35868285 C6.71462547,8.97322753 6.55708288,8.70674709 6.24263541,8.56376096 C6.06679325,8.48249427 5.81869555,8.44095981 5.50058816,8.43799306 L3.90783309,8.43799306 L3.90783309,10.4155103 L5.47593921,10.4155103 C5.79809468,10.4155103 6.04744008,10.3733381 6.22738577,10.2853616 C6.55189801,10.1236045 6.71462547,9.815756 6.71462547,9.35868285 Z M14.0750975,8.15149401 C14.1111976,8.3942682 14.1275286,8.74650704 14.1209019,9.20690739 L10.2508772,9.20690739 C10.2722267,9.74108825 10.4566364,10.1146489 10.8063798,10.328421 C11.0172962,10.4624792 11.2730187,10.5279417 11.5724661,10.5279417 C11.8882167,10.5279417 12.1455751,10.4481168 12.3436817,10.2840307 C12.4516214,10.1970523 12.5468346,10.0742789 12.6291549,9.91937034 L14.0476482,9.91937034 C14.0104945,10.2348714 13.8396986,10.5548642 13.5327651,10.8800419 C13.057226,11.3968936 12.3902901,11.6560542 11.5337597,11.6560542 C10.8261766,11.6560542 10.2025775,11.4374854 9.6612986,11.0019281 C9.12182197,10.5648458 8.85087754,9.85598731 8.85087754,8.87266312 C8.85087754,7.95055927 9.09412308,7.24477843 9.58225004,6.75351837 C10.0721792,6.26134333 10.7044568,6.01637874 11.4838241,6.01637874 C11.9457771,6.01637874 12.3622031,6.09894858 12.7337119,6.26494779 C13.1040562,6.43111336 13.4101303,6.69263074 13.6511854,7.05205077 C13.8693384,7.36857774 14.009635,7.73456899 14.0750975,8.15149401 Z M12.6788687,8.2899607 C12.6528611,7.92058681 12.5295332,7.64101941 12.3074707,7.44995534 C12.0872383,7.25836447 11.8121071,7.16218086 11.4838241,7.16218086 C11.126539,7.16218086 10.8506592,7.26499113 10.6546321,7.46706266 C10.4572741,7.66871829 10.3344729,7.942879 10.2841492,8.28998842 L12.6788687,8.28998842 L12.6788687,8.2899607 Z" id="Behance" fill="#000000" fill-rule="nonzero"></path>
                    <rect id="Rectangle" stroke="#000000" x="-0.5" y="-0.5" width="17" height="17"></rect>
                </g>
            </g>
        </g>
    </g>
</svg>