<?xml version="1.0" encoding="UTF-8"?>
<svg width="12px" height="12px" viewBox="0 0 12 12" version="1.1" xmlns="http://www.w3.org/2000/svg" xmlns:xlink="http://www.w3.org/1999/xlink">
    <!-- Generator: Sketch 48.2 (47327) - http://www.bohemiancoding.com/sketch -->
    <title>message</title>
    <desc>Created with Sketch.</desc>
    <defs></defs>
    <g id="1.0_Home" stroke="none" stroke-width="1" fill="none" fill-rule="evenodd" transform="translate(-643.000000, -1658.000000)">
        <g id="contact" transform="translate(621.000000, 1654.000000)" fill="#FFFFFF" fill-rule="nonzero">
            <g id="Group-3" transform="translate(22.000000, 0.000000)">
                <g id="message" transform="translate(0.000000, 4.000000)">
                    <path d="M11.9908356,4.53506429 C11.9908122,4.51574873 11.986781,4.48657471 11.9797731,4.46976767 C11.9613278,4.39817469 11.9203356,4.33277773 11.8589763,4.28712278 L10.1411951,3.00908517 L10.1411951,1.63903527 C10.1411951,1.45741887 10.0035701,1.31011894 9.83388257,1.31011894 L7.85765605,1.31011894 L6.17617953,0.0589224278 C6.07108579,-0.019368288 5.93156235,-0.0196943947 5.82614048,0.0582702142 L4.1338124,1.31011894 L2.16623432,1.31011894 C1.99649995,1.31011894 1.85892183,1.45741887 1.85892183,1.63903527 L1.85892183,2.99295543 L0.132796872,4.26981404 C0.0478828113,4.33262722 0.00194531245,4.43304303 0.000492187488,4.5357165 C0.00039843749,4.53764806 0,4.53947927 0,4.54148608 L0.00916406227,11.6715603 C0.00928124977,11.7587813 0.041765624,11.8423901 0.09944531,11.9039992 C0.157054684,11.9654829 0.235101557,12 0.316476555,12 C0.316640617,12 0.316757805,12 0.31689843,12 L11.6931091,11.9832682 C11.8627966,11.9830174 12.0002341,11.8355418 11.9999997,11.6539004 L11.9908356,4.53506429 Z M10.1411716,3.81027939 L11.123156,4.54070844 L10.1411716,5.27138834 L10.1411716,3.81027939 Z M6.00035141,0.729222401 L6.78105452,1.31009386 L5.21514831,1.31009386 L6.00035141,0.729222401 Z M2.47354681,1.9679516 L9.52654664,1.9679516 L9.52654664,5.72874058 L7.15851545,7.49077084 L6.1930311,6.68920034 C6.1915311,6.68794609 6.19024203,6.68716845 6.18878891,6.68603962 C6.08088266,6.59939555 5.92825766,6.59620974 5.81627329,6.68920034 L4.84378113,7.49656551 L2.47354681,5.74328996 L2.47354681,1.9679516 Z M1.85892183,3.79259437 L1.85892183,5.288672 L0.847687479,4.54065827 L1.85892183,3.79259437 Z M0.61542186,5.16886538 L4.33422645,7.91957619 L0.622921859,11.0006332 L0.61542186,5.16886538 Z M1.21582028,11.3408629 L6.00466391,7.3652699 L10.7763279,11.3267902 L1.21582028,11.3408629 Z M7.66743731,7.91327982 L11.377031,5.15301158 L11.384531,10.9993288 L7.66743731,7.91327982 Z" id="Shape"></path>
                    <path d="M8.09111896,3.24324324 L3.90888104,3.24324324 C3.73832744,3.24324324 3.6,3.38848672 3.6,3.56756757 C3.6,3.74664842 3.73832744,3.89189189 3.90888104,3.89189189 L8.09111896,3.89189189 C8.26171967,3.89189189 8.4,3.74664842 8.4,3.56756757 C8.4,3.38848672 8.26171967,3.24324324 8.09111896,3.24324324 Z" id="Shape"></path>
                    <path d="M8.09111896,5.02702703 L3.90888104,5.02702703 C3.73832744,5.02702703 3.6,5.1722705 3.6,5.35135135 C3.6,5.5304322 3.73832744,5.67567568 3.90888104,5.67567568 L8.09111896,5.67567568 C8.26171967,5.67567568 8.4,5.5304322 8.4,5.35135135 C8.4,5.1722705 8.26171967,5.02702703 8.09111896,5.02702703 Z" id="Shape"></path>
                </g>
            </g>
        </g>
    </g>
</svg>