<?xml version="1.0" encoding="UTF-8"?>
<svg width="16px" height="16px" viewBox="0 0 16 16" version="1.1" xmlns="http://www.w3.org/2000/svg" xmlns:xlink="http://www.w3.org/1999/xlink">
    <!-- Generator: Sketch 48.2 (47327) - http://www.bohemiancoding.com/sketch -->
    <title>message</title>
    <desc>Created with Sketch.</desc>
    <defs></defs>
    <g id="3.0_Contact" stroke="none" stroke-width="1" fill="none" fill-rule="evenodd" transform="translate(-628.000000, -360.000000)">
        <g id="contact" transform="translate(602.000000, 359.000000)" fill="#000000" fill-rule="nonzero">
            <g id="Group-3" transform="translate(26.000000, 0.000000)">
                <g id="message" transform="translate(0.000000, 1.000000)">
                    <path d="M15.9877809,6.04675238 C15.9877496,6.02099831 15.9823746,5.98209962 15.9730309,5.95969023 C15.9484371,5.86423292 15.8937809,5.77703698 15.8119684,5.71616371 L13.5215934,4.01211356 L13.5215934,2.18538036 C13.5215934,1.94322516 13.3380934,1.74682526 13.1118434,1.74682526 L10.4768747,1.74682526 L8.23490604,0.0785632371 C8.09478105,-0.0258243839 7.9087498,-0.026259193 7.76818731,0.077693619 L5.51174986,1.74682526 L2.88831243,1.74682526 C2.66199993,1.74682526 2.47856244,1.94322516 2.47856244,2.18538036 L2.47856244,3.99060724 L0.177062496,5.69308538 C0.0638437484,5.7768363 0.00259374994,5.91072404 0.000656249984,6.047622 C0.000531249987,6.05019741 0,6.05263903 0,6.05531478 L0.0122187497,15.5620804 C0.0123749997,15.6783751 0.0556874986,15.7898534 0.132593747,15.8719989 C0.209406245,15.9539771 0.313468742,16 0.421968739,16 C0.422187489,16 0.422343739,16 0.422531239,16 L15.5908121,15.977691 C15.8170621,15.9773565 16.0003121,15.7807224 15.9999996,15.5385338 L15.9877809,6.04675238 Z M13.5215622,5.08037252 L14.8308746,6.05427792 L13.5215622,7.02851779 L13.5215622,5.08037252 Z M8.00046855,0.972296535 L9.04140602,1.74679181 L6.95353108,1.74679181 L8.00046855,0.972296535 Z M3.29806242,2.62393547 L12.7020622,2.62393547 L12.7020622,7.63832077 L9.54468726,9.98769446 L8.25737479,8.91893379 C8.25537479,8.91726145 8.25365604,8.9162246 8.25171854,8.91471949 C8.10784355,8.79919407 7.90434355,8.79494632 7.75503106,8.91893379 L6.45837484,9.99542068 L3.29806242,7.65771995 L3.29806242,2.62393547 Z M2.47856244,5.05679249 L2.47856244,7.05156267 L1.13024997,6.05421103 L2.47856244,5.05679249 Z M0.82056248,6.89182051 L5.77896861,10.5594349 L0.830562479,14.6675109 L0.82056248,6.89182051 Z M1.62109371,15.1211506 L8.00621855,9.82035987 L14.3684371,15.1023869 L1.62109371,15.1211506 Z M10.2232497,10.5510398 L15.1693746,6.8706821 L15.1793746,14.6657717 L10.2232497,10.5510398 Z" id="Shape"></path>
                    <path d="M10.7881586,4.32432432 L5.21184138,4.32432432 C4.98443659,4.32432432 4.8,4.51798229 4.8,4.75675676 C4.8,4.99553122 4.98443659,5.18918919 5.21184138,5.18918919 L10.7881586,5.18918919 C11.0156262,5.18918919 11.2,4.99553122 11.2,4.75675676 C11.2,4.51798229 11.0156262,4.32432432 10.7881586,4.32432432 Z" id="Shape"></path>
                    <path d="M10.7881586,6.7027027 L5.21184138,6.7027027 C4.98443659,6.7027027 4.8,6.89636067 4.8,7.13513514 C4.8,7.3739096 4.98443659,7.56756757 5.21184138,7.56756757 L10.7881586,7.56756757 C11.0156262,7.56756757 11.2,7.3739096 11.2,7.13513514 C11.2,6.89636067 11.0156262,6.7027027 10.7881586,6.7027027 Z" id="Shape"></path>
                </g>
            </g>
        </g>
    </g>
</svg>