<?xml version="1.0" encoding="UTF-8"?>
<svg width="16px" height="16px" viewBox="0 0 16 16" version="1.1" xmlns="http://www.w3.org/2000/svg" xmlns:xlink="http://www.w3.org/1999/xlink">
    <!-- Generator: Sketch 48.2 (47327) - http://www.bohemiancoding.com/sketch -->
    <title>instagram-logo</title>
    <desc>Created with Sketch.</desc>
    <defs></defs>
    <g id="3.0_Contact" stroke="none" stroke-width="1" fill="none" fill-rule="evenodd" transform="translate(-615.000000, -450.000000)">
        <g id="contact" transform="translate(602.000000, 359.000000)" fill="#000000" fill-rule="nonzero">
            <g id="Group-5" transform="translate(13.000000, 90.000000)">
                <g id="instagram-logo" transform="translate(0.000000, 1.000000)">
                    <path d="M11.5205647,0 L4.39096471,0 C1.96978824,0 0,1.96988235 0,4.39105882 L0,11.5206588 C0,13.9419294 1.96978824,15.9117176 4.39096471,15.9117176 L11.5205647,15.9117176 C13.9419294,15.9117176 15.9117176,13.9418353 15.9117176,11.5206588 L15.9117176,4.39105882 C15.9118118,1.96988235 13.9419294,0 11.5205647,0 Z M14.5000471,11.5206588 C14.5000471,13.1634824 13.1634824,14.4999529 11.5206588,14.4999529 L4.39096471,14.4999529 C2.74823529,14.5000471 1.41176471,13.1634824 1.41176471,11.5206588 L1.41176471,4.39105882 C1.41176471,2.74832941 2.74823529,1.41176471 4.39096471,1.41176471 L11.5205647,1.41176471 C13.1633882,1.41176471 14.4999529,2.74832941 14.4999529,4.39105882 L14.4999529,11.5206588 L14.5000471,11.5206588 Z" id="Shape"></path>
                    <path d="M7.95585882,3.856 C5.69505882,3.856 3.85581176,5.69524706 3.85581176,7.95604706 C3.85581176,10.2167529 5.69505882,12.0559059 7.95585882,12.0559059 C10.2166588,12.0559059 12.0559059,10.2167529 12.0559059,7.95604706 C12.0559059,5.69524706 10.2166588,3.856 7.95585882,3.856 Z M7.95585882,10.6440471 C6.4736,10.6440471 5.26757647,9.43821176 5.26757647,7.95595294 C5.26757647,6.4736 6.47350588,5.26767059 7.95585882,5.26767059 C9.43821176,5.26767059 10.6441412,6.4736 10.6441412,7.95595294 C10.6441412,9.43821176 9.43811765,10.6440471 7.95585882,10.6440471 Z" id="Shape"></path>
                    <path d="M11.9925647,2.65891765 C11.7823829,2.65891765 11.5759102,2.74400856 11.4274738,2.89309947 C11.2783102,3.0414631 11.1925647,3.24800856 11.1925647,3.45891765 C11.1925647,3.66917219 11.2783829,3.87564492 11.4274738,4.02473583 C11.5758374,4.17309947 11.7823829,4.25891765 11.9925647,4.25891765 C12.2034738,4.25891765 12.409292,4.17309947 12.5583829,4.02473583 C12.7074738,3.87564492 12.7925647,3.66909947 12.7925647,3.45891765 C12.7925647,3.24800856 12.7074738,3.0414631 12.5583829,2.89309947 C12.4100193,2.74400856 12.2034738,2.65891765 11.9925647,2.65891765 Z" id="Shape"></path>
                </g>
            </g>
        </g>
    </g>
</svg>