<?xml version="1.0" encoding="UTF-8"?>
<svg width="12px" height="12px" viewBox="0 0 12 12" version="1.1" xmlns="http://www.w3.org/2000/svg" xmlns:xlink="http://www.w3.org/1999/xlink">
    <!-- Generator: Sketch 48.2 (47327) - http://www.bohemiancoding.com/sketch -->
    <title>linkedin</title>
    <desc>Created with Sketch.</desc>
    <defs></defs>
    <g id="1.0_Home" stroke="none" stroke-width="1" fill="none" fill-rule="evenodd" transform="translate(-621.000000, -1681.000000)">
        <g id="contact" transform="translate(621.000000, 1654.000000)" fill="#FFFFFF" fill-rule="nonzero">
            <g id="Group-2" transform="translate(0.000000, 24.000000)">
                <g id="linkedin" transform="translate(0.000000, 3.000000)">
                    <rect id="Rectangle-path" x="2.20245773" y="4.69870515" width="1.67025155" height="5.02505567"></rect>
                    <path d="M3.02654845,4.01284948 L3.03758351,4.01284948 C3.62028866,4.01284948 3.98258969,3.62684536 3.98258969,3.14437113 C3.97165361,2.65130722 3.62028866,2.27623918 3.04851959,2.27623918 C2.47687423,2.27623918 2.10309278,2.65130722 2.10309278,3.14437113 C2.10309278,3.62684536 2.46625979,4.01284948 3.02654845,4.01284948 Z" id="Shape"></path>
                    <path d="M6.46762887,9.72376082 L6.46762887,6.91734433 C6.46762887,6.76676289 6.47910928,6.61749278 6.52305155,6.51011134 C6.64396701,6.20951753 6.91838351,5.89915052 7.38014845,5.89915052 C7.98482474,5.89915052 8.22621031,6.36007423 8.22621031,7.03531546 L8.22621031,9.72373608 L9.89690722,9.72376082 L9.89690722,6.84210309 C9.89690722,5.29870515 9.07281649,4.58070928 7.97334433,4.58070928 C7.08581443,4.58070928 6.68964124,5.06912165 6.46762887,5.41073814 L6.46762887,5.42719175 L6.45669278,5.42719175 C6.45961237,5.4217732 6.46426392,5.41625567 6.46762887,5.41073814 L6.46762887,4.69868041 L4.79661031,4.69868041 C4.81900206,5.17009485 4.79661031,9.72376082 4.79661031,9.72376082 L6.46762887,9.72373608 L6.46762887,9.72376082 Z" id="Shape"></path>
                    <path d="M0,0 L0,12 L12,12 L12,0 L0,0 Z M11.257732,11.257732 L0.742268041,11.257732 L0.742268041,0.742268041 L11.257732,0.742268041 L11.257732,11.257732 Z" id="Shape"></path>
                </g>
            </g>
        </g>
    </g>
</svg>