<?xml version="1.0" encoding="UTF-8"?>
<svg width="16px" height="16px" viewBox="0 0 16 16" version="1.1" xmlns="http://www.w3.org/2000/svg" xmlns:xlink="http://www.w3.org/1999/xlink">
    <!-- Generator: Sketch 48.2 (47327) - http://www.bohemiancoding.com/sketch -->
    <title>linkedin</title>
    <desc>Created with Sketch.</desc>
    <defs></defs>
    <g id="3.0_Contact" stroke="none" stroke-width="1" fill="none" fill-rule="evenodd" transform="translate(-602.000000, -390.000000)">
        <g id="contact" transform="translate(602.000000, 359.000000)" fill="#000000" fill-rule="nonzero">
            <g id="Group-2" transform="translate(0.000000, 29.000000)">
                <g id="linkedin" transform="translate(0.000000, 2.000000)">
                    <rect id="Rectangle-path" x="2.93661031" y="6.26494021" width="2.22700206" height="6.70007423"></rect>
                    <path d="M4.03539794,5.35046598 L4.05011134,5.35046598 C4.82705155,5.35046598 5.31011959,4.83579381 5.31011959,4.19249485 C5.29553814,3.53507629 4.82705155,3.03498557 4.06469278,3.03498557 C3.30249897,3.03498557 2.80412371,3.53507629 2.80412371,4.19249485 C2.80412371,4.83579381 3.28834639,5.35046598 4.03539794,5.35046598 Z" id="Shape"></path>
                    <path d="M8.62350515,12.9650144 L8.62350515,9.22312577 C8.62350515,9.02235052 8.63881237,8.82332371 8.69740206,8.68014845 C8.85862268,8.2793567 9.22451134,7.86553402 9.84019794,7.86553402 C10.646433,7.86553402 10.9682804,8.48009897 10.9682804,9.38042062 L10.9682804,12.9649814 L13.1958763,12.9650144 L13.1958763,9.12280412 C13.1958763,7.06494021 12.0970887,6.10761237 10.6311258,6.10761237 C9.44775258,6.10761237 8.91952165,6.75882887 8.62350515,7.21431753 L8.62350515,7.23625567 L8.60892371,7.23625567 C8.61281649,7.22903093 8.61901856,7.22167423 8.62350515,7.21431753 L8.62350515,6.26490722 L6.39548041,6.26490722 C6.42533608,6.89345979 6.39548041,12.9650144 6.39548041,12.9650144 L8.62350515,12.9649814 L8.62350515,12.9650144 Z" id="Shape"></path>
                    <path d="M0,0 L0,16 L16,16 L16,0 L0,0 Z M15.0103093,15.0103093 L0.989690722,15.0103093 L0.989690722,0.989690722 L15.0103093,0.989690722 L15.0103093,15.0103093 Z" id="Shape"></path>
                </g>
            </g>
        </g>
    </g>
</svg>